<svg width="24" height="24" viewBox="0 0 24 24" fill="none" xmlns="http://www.w3.org/2000/svg">
    <path fill-rule="evenodd" clip-rule="evenodd" d="M15.9037 1C16.0316 2.18299 15.5707 3.34874 14.8969 4.2056C14.1939 5.04914 13.0692 5.69434 11.9738 5.61124C11.8305 4.47293 12.3855 3.2625 13.0068 2.52401C13.709 1.68596 14.9285 1.0439 15.9037 1ZM19.4896 7.82428C19.3673 7.89848 17.3415 9.12817 17.3637 11.636C17.3891 14.6644 19.9684 15.6655 20 15.6765C19.9846 15.747 19.5961 17.1213 18.6286 18.5168C17.8208 19.7452 16.9744 20.9462 15.63 20.9682C14.9909 20.9832 14.5593 20.7962 14.1096 20.6015C13.6405 20.3983 13.1517 20.1866 12.387 20.1866C11.5763 20.1866 11.0658 20.4051 10.5734 20.6158C10.1477 20.798 9.73563 20.9744 9.1548 20.9988C7.87441 21.0466 6.89619 19.6872 6.05904 18.4697C4.3855 15.9838 3.08275 11.4643 4.82952 8.38882C5.67592 6.88048 7.21918 5.90916 8.86881 5.88329C9.59524 5.86819 10.292 6.1529 10.9027 6.40248C11.3698 6.59335 11.7866 6.76367 12.128 6.76367C12.4279 6.76367 12.833 6.60016 13.3051 6.40958C14.0492 6.10924 14.9598 5.74167 15.8875 5.84096C16.5219 5.85977 18.3272 6.09574 19.492 7.8228L19.4896 7.82428Z" fill="#00BFDA"/>
</svg>
