<svg width="96" height="32" viewBox="0 0 96 32" fill="none" xmlns="http://www.w3.org/2000/svg">
    <path fill-rule="evenodd" clip-rule="evenodd" d="M12.5858 0.00147688C2.15557 0.0693112 -0.0658019 2.33817 0.00146452 12.8573L0.0426157 19.3071C0.109882 29.8262 2.35975 32.0664 12.7908 31.9985H83.4142C93.8444 31.9307 96.0658 29.661 95.9985 19.1427L95.9574 12.6921C95.8901 2.17377 93.6395 -0.0663574 83.2092 0.00147688H12.5858ZM13.426 3.17973C5.06754 3.17973 3.27588 4.98652 3.27588 13.4155V18.5845C3.27588 27.0135 5.06754 28.8203 13.426 28.8203L82.7776 29.2792C91.1361 29.2792 92.9277 27.4724 92.9277 19.0434V13.8744C92.9277 5.4454 91.1361 3.63861 82.7776 3.63861L13.426 3.17973Z" fill="#00BFDA"/>
    <path d="M34.857 14.7058H29.7764V17.2676H34.857V14.7058Z" fill="#00BFDA"/>
    <path d="M27.2368 9.58289H15.2554V12.1446H24.6957V14.7064H15.2554V22.3908H17.7957H29.7763V19.8291H27.236L27.2368 9.58289ZM17.7957 19.8291V17.2673H24.6965V19.8291H17.7957Z" fill="#00BFDA"/>
    <path d="M78.4196 9.58289V14.7056H71.5188V9.58289H71.5101H66.4382V12.1446H68.9785V17.2673H78.4196V19.8291H68.9785V22.3908H80.9591V9.58289H78.4196Z" fill="#00BFDA"/>
    <path fill-rule="evenodd" clip-rule="evenodd" d="M63.8985 9.58289H51.9172V12.1446H61.3575V14.7064H51.9172V22.3908H66.438V19.8291H63.8977L63.8985 9.58289ZM54.4575 17.2673V19.8291H61.3582V17.2673H54.4575Z" fill="#00BFDA"/>
    <path fill-rule="evenodd" clip-rule="evenodd" d="M37.3974 9.58289V22.3908H39.9377V17.2673H49.378V9.58289H37.3974ZM39.9369 14.7056H46.8377V12.1438H39.9369V14.7056Z" fill="#00BFDA"/>
    <path d="M46.8377 14.7056H39.9369V12.1438H46.8377V14.7056Z" fill="none"/>
    <path d="M54.4575 19.8291V17.2673H61.3582V19.8291H54.4575Z" fill="none"/>
    <path d="M17.7957 19.8291V17.2673H24.6965V19.8291H17.7957Z" fill="none"/>
    <path fill-rule="evenodd" clip-rule="evenodd" d="M3.27588 13.4155C3.27588 4.98652 5.06754 3.17973 13.426 3.17973L82.7776 3.63861C91.1361 3.63861 92.9277 5.4454 92.9277 13.8744V19.0434C92.9277 27.4724 91.1361 29.2792 82.7776 29.2792L13.426 28.8203C5.06754 28.8203 3.27588 27.0135 3.27588 18.5845V13.4155ZM34.857 14.7058H29.7764V17.2676H34.857V14.7058ZM15.2554 9.58289H27.2368L27.236 19.8291H29.7763V22.3908H17.7957H15.2554V14.7064H24.6957V12.1446H15.2554V9.58289ZM51.9172 9.58289H63.8985L63.8977 19.8291H66.438V22.3908H51.9172V14.7064H61.3575V12.1446H51.9172V9.58289ZM78.4196 14.7056V9.58289H80.9591V22.3908H68.9785V19.8291H78.4196V17.2673H68.9785V12.1446H66.4382V9.58289H71.5101H71.5188V14.7056H78.4196ZM37.3974 22.3908V9.58289H49.378V17.2673H39.9377V22.3908H37.3974Z" fill="none"/>
</svg>
