<svg width="24" height="24" viewBox="0 0 24 24" fill="none" xmlns="http://www.w3.org/2000/svg">
    <path fill-rule="evenodd" clip-rule="evenodd" d="M4.00011 3.3368C4.09796 9.11025 4.06932 14.8974 4 20.6711L12.7025 12.0004L4.00011 3.3368ZM4.36158 21.6849C4.58779 21.8712 4.86052 21.991 5.16446 21.9998C5.46074 22.0083 5.73484 21.8621 5.98423 21.7315C6.23362 21.6009 16.4086 15.8311 16.4086 15.8311L13.334 12.7453L4.36158 21.6849ZM21.1809 13.1272C21.5904 12.894 21.8464 12.6062 21.9488 12.3051C22.046 12.0193 22.0048 11.7216 21.8252 11.4473C21.6895 11.24 21.4747 11.0461 21.1809 10.8809L17.2803 8.67347L13.972 12.0041L17.2803 15.3269L21.1809 13.1272ZM16.4061 8.17223L13.3377 11.2593L4.35801 2.31963L4.35378 2.31539C4.52616 2.16441 4.9308 2.00702 5.15667 2.00053C5.45295 1.99201 5.70699 2.12356 5.97643 2.26875C6.24586 2.41395 16.4061 8.17223 16.4061 8.17223Z" fill="#00BFDA"/>
</svg>
